<svg xmlns="http://www.w3.org/2000/svg" data-name="Layer 1" viewBox="0 0 100 125" x="0px" y="0px"><title>Artboard 19</title>
<path d="M94.86,61.15,83.64,42.53a3.74,3.74,0,0,0-3.19-1.8H62.54v1.89H80.45a1.84,1.84,0,0,1,1.57.89L93.11,61.9V75.06a.91.91,0,0,1-.91.91H83c0,.31,0,.63,0,1s0,.63,0,.94H92.2a2.8,2.8,0,0,0,2.8-2.8V61.64A1,1,0,0,0,94.86,61.15Z"/>
<path d="M65.12,76H62.54v1a1,1,0,0,1-.95.94h3.53a7.3,7.3,0,0,1-.05-.94A7.46,7.46,0,0,1,65.12,76Z"/>
<path d="M5,75v0a2.8,2.8,0,0,0,2.8,2.8h0A2.83,2.83,0,0,1,5,75Z"/>
<path d="M5.94,67.91h.95V32.4a.91.91,0,0,1,.91-.91H21q0-1,.18-1.89H7.8A2.81,2.81,0,0,0,5,32.4V68.86A1,1,0,0,1,5.94,67.91Z"/>
<path d="M57.48,31.49h2.26a.91.91,0,0,1,.91.91V67.91h.94a1,1,0,0,1,.95,1V32.4a2.81,2.81,0,0,0-2.8-2.8H57.3Q57.44,30.53,57.48,31.49Z"/>
<path d="M83,76a9,9,0,0,0-17.9,0,7.46,7.46,0,0,0-.05,1,7.3,7.3,0,0,0,.05.94,9,9,0,0,0,17.9,0c0-.31,0-.62,0-.94S83.05,76.28,83,76Zm-9,8.06a7.12,7.12,0,1,1,7.11-7.11A7.13,7.13,0,0,1,74.07,84Z"/>
<path d="M74.07,72.2a4.72,4.72,0,1,0,4.72,4.72A4.73,4.73,0,0,0,74.07,72.2Zm0,7.55a2.83,2.83,0,1,1,2.83-2.83A2.83,2.83,0,0,1,74.07,79.75Z"/>
<path d="M66.32,58.54h20a.94.94,0,0,0,.82-.48.93.93,0,0,0,0-1L80.46,46.23a1.88,1.88,0,0,0-1.64-1H66.32a1,1,0,0,0-.95.95V57.6A1,1,0,0,0,66.32,58.54Zm.94-11.38H78.82l5.77,9.5H67.26Z"/>
<path d="M11.64,39.82a1,1,0,0,0,.94,1H23.07a17.85,17.85,0,0,1-.85-1.89H12.58A.94.94,0,0,0,11.64,39.82Z"/>
<path d="M41.67,50.42a19.29,19.29,0,0,1-2.42.16h1.89A1,1,0,0,0,41.67,50.42Z"/>
<path d="M15.35,49.64a.94.94,0,0,0,.94.94h23a18.05,18.05,0,0,1-8.07-1.89H16.29A1,1,0,0,0,15.35,49.64Z"/>
<path d="M50,58.51H20a.95.95,0,0,0,0,1.89H50a.95.95,0,0,0,0-1.89Z"/>
<path d="M62.54,76.92V68.86a1,1,0,0,0-.95-1H28a8.92,8.92,0,0,1,5.49,1.89H60.65V76H36.94c0,.31.05.63.05,1s0,.63-.05.94H61.59A1,1,0,0,0,62.54,76.92Z"/>
<path d="M19,76H7.83A.94.94,0,0,1,6.89,75V69.8h15.6A9,9,0,0,1,28,67.91h-22a1,1,0,0,0-.94,1V75a2.83,2.83,0,0,0,2.83,2.83H19a7.3,7.3,0,0,1-.05-.94A7.46,7.46,0,0,1,19,76Z"/>
<path d="M72,61.06H67.54a.95.95,0,0,0,0,1.89H72a.95.95,0,0,0,0-1.89Z"/>
<path d="M36.94,76A9,9,0,0,0,19,76a7.46,7.46,0,0,0-.05,1,7.3,7.3,0,0,0,.05.94,9,9,0,0,0,17.9,0c0-.31.05-.62.05-.94S37,76.28,36.94,76ZM28,84a7.12,7.12,0,1,1,7.11-7.11A7.12,7.12,0,0,1,28,84Z"/>
<path d="M32.71,76.92A4.72,4.72,0,1,0,28,81.64,4.73,4.73,0,0,0,32.71,76.92ZM28,79.75a2.83,2.83,0,1,1,2.83-2.83A2.83,2.83,0,0,1,28,79.75Z"/>
<path d="M54.11,42.91l-.4.54Z"/>
<path d="M51.2,46.11l-.62.52Z"/>
<path d="M53.34,43.92c-.21.25-.42.5-.64.74C52.92,44.42,53.13,44.17,53.34,43.92Z"/>
<path d="M52.28,45.09c-.18.19-.37.37-.56.55C51.91,45.46,52.1,45.28,52.28,45.09Z"/>
<path d="M21,31.49c0,.28,0,.56,0,.84a18.06,18.06,0,0,0,1.22,6.55,17.85,17.85,0,0,0,.85,1.89,18.37,18.37,0,0,0,8.11,7.92,18.05,18.05,0,0,0,8.07,1.89,19.29,19.29,0,0,0,2.42-.16,18.28,18.28,0,0,0,8.63-3.57,1,1,0,0,1-.53.17.91.91,0,0,1-.67-.28L48.31,46a16.36,16.36,0,1,1,5.09-5.41l.84.84a1,1,0,0,1,.13,1.17A18.15,18.15,0,0,0,57.5,32.33c0-.28,0-.56,0-.84q0-1-.18-1.89a18.26,18.26,0,0,0-36.1,0Q21.07,30.53,21,31.49Z"/>
<path d="M50.58,46.63l.62-.52.52-.47c.19-.18.38-.36.56-.55l.42-.43c.22-.24.43-.49.64-.74s.25-.31.37-.47l.4-.54c.08-.11.17-.22.24-.33l0,0a1,1,0,0,0-.13-1.17l-.84-.84L47.06,34.2l1.14-6.37a.93.93,0,0,0-.26-.84l-5.11-5.11a.94.94,0,0,0-.91-.24l-5.4,1.45a1,1,0,0,0-.67.67,1,1,0,0,0,.24.91l4.24,4.23-.86,3.19L36.28,33,32,28.72a1,1,0,0,0-.91-.25,1,1,0,0,0-.67.67L29,34.55a.93.93,0,0,0,.24.91l5.11,5.11a1,1,0,0,0,.83.26L42,39.64,48.31,46l.79.79a.91.91,0,0,0,.67.28,1,1,0,0,0,.53-.17l0,0ZM42.16,37.7l-6.8,1.18L31,34.51l.89-3.3,3.46,3.46a1,1,0,0,0,.91.25l4.25-1.14a.93.93,0,0,0,.66-.67l1.14-4.25a.93.93,0,0,0-.24-.91l-3.46-3.46,3.3-.88L46.26,28l-1.14,6.38a.92.92,0,0,0,.26.83l7,7a15.8,15.8,0,0,1-2.51,2.66L43,38a1,1,0,0,0-.67-.28Z"/>
<text x="0" y="115" fill="#000000" font-size="5px" font-weight="bold" font-family="'Helvetica Neue', Helvetica, Arial-Unicode, Arial, Sans-serif">Created by Naufal Hudallah</text><text x="0" y="120" fill="#000000" font-size="5px" font-weight="bold" font-family="'Helvetica Neue', Helvetica, Arial-Unicode, Arial, Sans-serif">from the Noun Project</text></svg>