<svg xmlns="http://www.w3.org/2000/svg" version="1.1" viewBox="-5.0 -10.0 110.0 135.0">
 <path d="m22.234 33.766h7.5625c1.4453 0 2.3594 1.1758 2.043 2.6172-0.31641 1.4453-1.75 2.6172-3.1953 2.6172l-7.5625 0.003906-0.53516 2.4453h7.5625c1.4453 0 2.3594 1.1758 2.043 2.6172-0.31641 1.4453-1.75 2.6172-3.1953 2.6172h-7.5625l-0.53516 2.4453h7.5625c1.4453 0 2.3594 1.1758 2.043 2.6172-0.31641 1.4453-1.75 2.6172-3.1914 2.6172h-7.5664l-0.47266 2.1523-1.1523 5.2344h7.7891c1.5156-4.0781 5.7266-7.2148 9.9727-7.2148 4.25 0 7.0781 3.1367 6.8008 7.2148h24.777l6.9102-31.414-49.344 0.003906z"/>
 <path d="m86.91 39.293h-14.98l-4.9414 22.457h3.6875c1.5156-4.0781 5.7266-7.2148 9.9727-7.2148 4.2461 0 7.0781 3.1367 6.8008 7.2148h4.6445l2.7109-12.328c1.2344-5.5859-2.3086-10.129-7.8945-10.129z"/>
 <path d="m33.516 56.02c-3.2422 0-6.4375 2.2227-7.8945 5.2148-0.28125 0.57812-0.51953 1.1719-0.65625 1.7969-0.24609 1.1133-0.1875 2.1562 0.074218 3.0938 0.64063 2.3086 2.6445 3.9141 5.3945 3.9141s5.4648-1.6055 7.1211-3.9141c0.67187-0.9375 1.1875-1.9805 1.4336-3.0938 0.13672-0.625 0.16016-1.2188 0.13281-1.7969-0.14062-2.9922-2.3633-5.2148-5.6055-5.2148z"/>
 <path d="m80.207 56.02c-3.2422 0-6.4375 2.2227-7.8945 5.2148-0.28125 0.57812-0.51953 1.1719-0.65625 1.7969-0.24609 1.1133-0.1875 2.1562 0.070312 3.0938 0.64063 2.3086 2.6484 3.9141 5.3945 3.9141 2.75 0 5.4648-1.6055 7.1211-3.9141 0.67187-0.9375 1.1875-1.9805 1.4336-3.0938 0.13672-0.625 0.16016-1.2188 0.13281-1.7969-0.13672-2.9922-2.3555-5.2148-5.6016-5.2148z"/>
 <path d="m9.793 37.957h19.082c0.86719 0 1.7266-0.70703 1.918-1.5703 0.19141-0.86719-0.35938-1.5703-1.2266-1.5703l-7.5625-0.003906h-11.52c-0.86719 0-1.7266 0.70312-1.9141 1.5703-0.19141 0.86719 0.35547 1.5742 1.2227 1.5742z"/>
 <path d="m8.1055 45.637h19.082c0.86719 0 1.7266-0.70312 1.9141-1.5703 0.19141-0.86719-0.35937-1.5703-1.2266-1.5703h-19.078c-0.86719 0-1.7266 0.70703-1.9141 1.5703-0.19531 0.86719 0.35547 1.5703 1.2227 1.5703z"/>
 <path d="m25.5 53.316c0.86719 0 1.7266-0.70703 1.9141-1.5703 0.19141-0.86719-0.35937-1.5703-1.2227-1.5703h-19.086c-0.86719 0-1.7266 0.70703-1.918 1.5703-0.19141 0.86719 0.35938 1.5703 1.2266 1.5703z"/>
<text x="0.0" y="117.5" font-size="5.0" font-weight="bold" font-family="Arbeit Regular, Helvetica, Arial-Unicode, Arial, Sans-serif" fill="#000000">Created by swk</text><text x="0.0" y="122.5" font-size="5.0" font-weight="bold" font-family="Arbeit Regular, Helvetica, Arial-Unicode, Arial, Sans-serif" fill="#000000">from Noun Project</text></svg>