<svg xmlns="http://www.w3.org/2000/svg" version="1.1" viewBox="-5.0 -10.0 110.0 135.0">
 <g>
  <path d="m87.375 35.32c-0.24609-0.57422-0.8125-0.94531-1.4375-0.94531h-4.6875v9.375h9.7344z"/>
  <path d="m62.5 31.25h-7.8125v-1.5625c0-0.86328-0.69922-1.5625-1.5625-1.5625s-1.5625 0.69922-1.5625 1.5625v1.5625h-9.375v-1.5625c0-0.86328-0.69922-1.5625-1.5625-1.5625s-1.5625 0.69922-1.5625 1.5625v1.5625h-9.375v-1.5625c0-0.86328-0.69922-1.5625-1.5625-1.5625s-1.5625 0.69922-1.5625 1.5625v1.5625h-9.375v-1.5625c0-0.86328-0.69922-1.5625-1.5625-1.5625s-1.5625 0.69922-1.5625 1.5625v1.5625h-7.8125c-1.1094 0-3.2031 0.53906-4.75 4.1484-0.96875 2.2578-1.5 5.2188-1.5 8.3516 0 3.1289 0.53125 6.0938 1.5 8.3516 1.5469 3.6094 3.6406 4.1484 4.75 4.1484h56.25c1.1094 0 3.2031-0.53906 4.75-4.1484 0.96875-2.2578 1.5-5.2188 1.5-8.3516 0-3.1289-0.53125-6.0938-1.5-8.3516-1.5469-3.6094-3.6406-4.1484-4.75-4.1484z"/>
  <path d="m39.062 65.625h29.688v-6.25h-32.078c1.4844 1.6562 2.3906 3.8477 2.3906 6.25z"/>
  <path d="m96.875 53.125h3.125v-3.125c0-0.64062-0.39062-1.2109-0.98438-1.4531l-4.1875-1.6719h-15.145c-0.86328 0-1.5625-0.69922-1.5625-1.5625v-10.938h-4.6875c-0.86328 0-1.5625 0.69922-1.5625 1.5625v29.688h4.6875c0-5.1797 4.1953-9.375 9.375-9.375 5.1758 0 9.375 4.1953 9.375 9.375h3.125c0.86328 0 1.5625-0.69922 1.5625-1.5625v-7.8125h-3.125c-0.86328 0-1.5625-0.69922-1.5625-1.5625s0.69922-1.5625 1.5625-1.5625z"/>
  <path d="m29.688 59.375c-3.4531 0-6.25 2.7969-6.25 6.25s2.7969 6.25 6.25 6.25c3.4492 0 6.25-2.7969 6.25-6.25s-2.7969-6.25-6.25-6.25zm0 7.8125c-0.86328 0-1.5625-0.69922-1.5625-1.5625s0.69922-1.5625 1.5625-1.5625 1.5625 0.69922 1.5625 1.5625-0.69922 1.5625-1.5625 1.5625z"/>
  <path d="m17.188 59.375c-3.4531 0-6.25 2.7969-6.25 6.25s2.7969 6.25 6.25 6.25 6.25-2.7969 6.25-6.25-2.7969-6.25-6.25-6.25zm0 7.8125c-0.86328 0-1.5625-0.69922-1.5625-1.5625s0.69922-1.5625 1.5625-1.5625 1.5625 0.69922 1.5625 1.5625-0.69922 1.5625-1.5625 1.5625z"/>
  <path d="m85.938 59.375c-3.4531 0-6.25 2.7969-6.25 6.25s2.7969 6.25 6.25 6.25 6.25-2.7969 6.25-6.25-2.7969-6.25-6.25-6.25zm0 7.8125c-0.86328 0-1.5625-0.69922-1.5625-1.5625s0.69922-1.5625 1.5625-1.5625 1.5625 0.69922 1.5625 1.5625-0.69922 1.5625-1.5625 1.5625z"/>
 </g>
<text x="0.0" y="117.5" font-size="5.0" font-weight="bold" font-family="Arbeit Regular, Helvetica, Arial-Unicode, Arial, Sans-serif" fill="#000000">Created by Izwar Muis</text><text x="0.0" y="122.5" font-size="5.0" font-weight="bold" font-family="Arbeit Regular, Helvetica, Arial-Unicode, Arial, Sans-serif" fill="#000000">from Noun Project</text></svg>