<svg xmlns="http://www.w3.org/2000/svg" xmlns:xlink="http://www.w3.org/1999/xlink" xml:space="preserve" version="1.1" style="shape-rendering:geometricPrecision;text-rendering:geometricPrecision;image-rendering:optimizeQuality;" viewBox="0 0 85999 52537.5" x="0px" y="0px" fill-rule="evenodd" clip-rule="evenodd"><defs><style type="text/css">
   
    .fil0 {fill:black}
   
  </style></defs><g><path class="fil0" d="M28955 36044c-3155,0 -6306,-7 -9469,-7 0,-643 -72,-1253 -236,-1876l8898 0 807 1883z"/><path class="fil0" d="M65880 29042l13331 0 -1 1380 -5026 1338 0 4284 -2669 0c-21,-3425 -2423,-6283 -5635,-7002z"/><path class="fil0" d="M49358 29042l13357 0c-3211,719 -5614,3577 -5636,7002l-2086 0c-20,-3425 -2422,-6283 -5635,-7002z"/><path class="fil0" d="M12054 7634l10739 -22 -8 17761 1081 0 0 -15310 1748 0 0 10334 4483 0 -126 8645 16223 0c-3211,717 -5616,3578 -5637,7002l-10566 0 -1218 -2835 -9843 0c-1091,-2607 -3661,-4441 -6663,-4441 -3989,0 -7217,3236 -7217,7221l-5050 45 0 -7000 768 6 921 -9484 2306 -1046c3662,-11056 886,-10861 8059,-10876zm1810 14407l2397 0 0 1103 -2397 0 0 -1103zm-6891 -8288l-1181 4294 5665 0c5507,0 4576,851 4576,-4701l0 -4560c-9262,24 -7046,-1091 -9060,4967zm15810 12682l-8 2607 1782 0 0 -2609 -1774 2z"/><path class="fil0" d="M12170 29508c3458,0 6261,2804 6261,6262 0,3457 -2803,6260 -6261,6260 -3455,0 -6261,-2803 -6261,-6260 0,-3458 2806,-6262 6261,-6262z"/><path class="fil0" d="M47714 29508c3457,0 6260,2804 6260,6262 0,3457 -2803,6260 -6260,6260 -3456,0 -6260,-2803 -6260,-6260 0,-3458 2804,-6262 6260,-6262z"/><path class="fil0" d="M64244 29508c3457,0 6260,2804 6260,6262 0,3457 -2803,6260 -6260,6260 -3455,0 -6260,-2803 -6260,-6260 0,-3458 2805,-6262 6260,-6262z"/><polygon class="fil0" points="36301,26119 75867,26119 75867,28519 36301,28519 "/><path class="fil0" d="M17442 0l11922 0 3581 6523 1 8 8194 17131 40828 0c-1044,-2383 -340,-2540 -3142,-2546l-6103 -11128 -215 316 4416 10807 -8364 -19 -6091 -11104 -215 316 4407 10784 -7901 -17 -6078 -11083 -215 316 4397 10762 -7662 -17 -6067 -11061 -215 316 4388 10741 -5215 -138 -6022 -12228 43021 -165c7082,15972 12428,17296 -3406,17265l-42326 -86 -7402 -21606c-6194,-458 -9599,1331 -8516,-4087z"/></g><text x="0" y="42045" fill="#000000" font-size="5px" font-weight="bold" font-family="'Helvetica Neue', Helvetica, Arial-Unicode, Arial, Sans-serif">Created by Abdul Wahhab</text><text x="0" y="42050" fill="#000000" font-size="5px" font-weight="bold" font-family="'Helvetica Neue', Helvetica, Arial-Unicode, Arial, Sans-serif">from the Noun Project</text></svg>