<svg xmlns="http://www.w3.org/2000/svg" xmlns:xlink="http://www.w3.org/1999/xlink" viewBox="0 0 100 125" version="1.1" x="0px" y="0px"><title>Artboard</title><desc>Created with Sketch.</desc><g stroke="none" stroke-width="1" fill="none" fill-rule="evenodd"><path d="M74.05,60.3026269 C77.3637085,60.3026269 80.05,62.9889184 80.05,66.3026269 C80.05,69.6163354 77.3637085,72.3026269 74.05,72.3026269 C70.7362915,72.3026269 68.05,69.6163354 68.05,66.3026269 C68.05,62.9889184 70.7362915,60.3026269 74.05,60.3026269 Z M30.05,60.3026269 C33.3637085,60.3026269 36.05,62.9889184 36.05,66.3026269 C36.05,69.6163354 33.3637085,72.3026269 30.05,72.3026269 C26.7362915,72.3026269 24.05,69.6163354 24.05,66.3026269 C24.05,62.9889184 26.7362915,60.3026269 30.05,60.3026269 Z M78.05,33.3026269 L88.05,45.3026269 L88.05,66.3026269 L82.0499999,66.3036273 C82.05,66.3032938 82.05,66.3029604 82.05,66.3026269 C82.05,61.8843489 78.468278,58.3026269 74.05,58.3026269 C69.7150857,58.3026269 66.1854571,61.7504647 66.0538068,66.0534476 L66.05,66.3026269 L59.05,66.3026269 L59.05,33.3026269 L78.05,33.3026269 Z M19.512836,27.3447438 L55.7646594,48.2747438 C56.5269832,48.7148717 56.9785184,49.4865761 57.0422702,50.3025087 L57.05,50.3026269 L57.0497731,50.4625817 C57.0500705,50.4815582 57.0501578,50.5005484 57.0500341,50.5195486 L57.05,66.3026269 L38.05,66.3026269 C38.05,61.8843489 34.468278,58.3026269 30.05,58.3026269 C25.631722,58.3026269 22.05,61.8843489 22.05,66.3026269 L13.05,66.3026269 L13.05,50.3026269 L48.996,50.302 L18.38,32.626 L18.3811077,36.533896 C19.5868894,37.3411902 20.3807441,38.7158268 20.3807441,40.2758781 C20.3807441,42.7611595 18.3660255,44.7758781 15.8807441,44.7758781 C14.2273302,44.7758781 12.7821876,43.8841623 12,42.5554142 L14.8884364,41.400769 C15.1528767,41.6342202 15.5002674,41.7758781 15.8807441,41.7758781 C16.7091713,41.7758781 17.3807441,41.1043052 17.3807441,40.2758781 C17.3807441,39.6230314 16.963676,39.0675962 16.3814471,38.8614796 L16.381,37.803 L16.3807441,37.8033783 L16.3799026,31.3574501 C15.6018766,30.553705 15.4150382,29.3023377 16.0021507,28.2854291 C16.7118366,27.0562171 18.2836239,26.6350579 19.512836,27.3447438 Z M76.4785714,36.3026269 L72.05,36.3026269 L72.05,46.3026269 L84.493,46.3026269 L76.4785714,36.3026269 Z" fill="#000000"/></g><text x="0" y="115" fill="#000000" font-size="5px" font-weight="bold" font-family="'Helvetica Neue', Helvetica, Arial-Unicode, Arial, Sans-serif">Created by franc11s</text><text x="0" y="120" fill="#000000" font-size="5px" font-weight="bold" font-family="'Helvetica Neue', Helvetica, Arial-Unicode, Arial, Sans-serif">from the Noun Project</text></svg>