<svg xmlns:dc="http://purl.org/dc/elements/1.1/" xmlns:cc="http://creativecommons.org/ns#" xmlns:rdf="http://www.w3.org/1999/02/22-rdf-syntax-ns#" xmlns:svg="http://www.w3.org/2000/svg" xmlns="http://www.w3.org/2000/svg" xmlns:sodipodi="http://sodipodi.sourceforge.net/DTD/sodipodi-0.dtd" xmlns:inkscape="http://www.inkscape.org/namespaces/inkscape" 
viewBox="0 0 12.7 15.875" version="1.1" x="0px" y="0px"><g transform="translate(0,-284.29998)">
<path style="" d="M 2.1185723,291.17148 3.06308,287.64696 a 0.07388332,0.07388332 0 0 0 -0.051657,-0.0904 l -1.4450714,-0.3871 a 0.07388332,0.07388332 0 0 0 -0.090146,0.0523 l -0.9445077,3.52451 a 0.07388332,0.07388332 0 0 0 0.0516567,0.0904 l 1.4450715,0.3871 a 0.07388332,0.07388332 0 0 0 0.090146,-0.0523 z" fill="#000000" stroke="none"/>
<path style="" d="m 5.1604442,292.74895 -0.360888,0.36125 a 0.36914123,0.36914123 0 0 0 0.5218342,0.52204 l 0.360888,-0.36125 a 0.36914123,0.36914123 0 0 0 -0.5218342,-0.52204 z" fill="#000000" stroke="none"/>
<path style="" d="m 6.210595,293.8158 a 0.29890091,0.29890091 0 0 0 -0.4226735,-0.42271 l -0.2339746,0.23378 a 0.29890091,0.29890091 0 0 0 0.4225723,0.4227 z" fill="#000000" stroke="none"/>
<path style="" d="m 4.3300878,292.06934 -0.3488348,0.34922 a 0.45342969,0.45342969 0 0 0 0.6410497,0.64124 l 0.3488349,-0.34921 a 0.45342969,0.45342969 0 0 0 -0.6410498,-0.64125 z" fill="#000000" stroke="none"/>
<path style="" d="m 3.7203359,292.45177 0.3537979,-0.35385 a 0.36914126,0.36914126 0 0 0 -0.5218342,-0.52205 l -0.3537979,0.35386 a 0.36914126,0.36914126 0 0 0 0.5218342,0.52204 z" fill="#000000" stroke="none"/>
<path style="" d="m 9.6360434,287.64696 0.9444066,3.52452 a 0.07388332,0.07388332 0 0 0 0.09015,0.0523 l 1.445071,-0.3871 a 0.07388332,0.07388332 0 0 0 0.05267,-0.0905 l -0.944406,-3.52451 a 0.07388332,0.07388332 0 0 0 -0.09116,-0.0523 l -1.4443629,0.3871 a 0.07388332,0.07388332 0 0 0 -0.05267,0.0905 z" fill="#000000" stroke="none"/>
<path style="" d="m 5.0774896,287.59753 a 1.8863331,1.8863331 0 0 1 1.4514526,-0.0964 7.2502471,7.2502471 0 0 0 1.2919245,0.31304 3.8652944,3.8652944 0 0 0 1.7215869,0.10433 l 0.8096934,3.0221 a 2.2516405,2.2516405 0 0 0 -0.9224266,0.62511 l -2.3853251,-2.38514 a 1.204243,1.204243 0 0 0 -1.6053086,-0.0876 4.5693782,4.5693782 0 0 1 -1.0770933,0.64368 0.36771007,0.36771007 0 0 1 -0.4842565,-0.47714 4.3342239,4.3342239 0 0 1 1.1997527,-1.66194 z" fill="#000000" stroke="none"/>
<path style="" d="m 3.728844,289.19887 a 0.52850424,0.52850424 0 0 0 0.6962516,0.68579 4.7301724,4.7301724 0 0 0 1.114671,-0.66634 1.0434488,1.0434488 0 0 1 1.3911865,0.0759 l 2.4539981,2.45391 a 0.39741605,0.39741605 0 0 1 -0.5622479,0.56178 l -1.2486747,-1.24876 a 0.08039709,0.08039709 0 0 0 -0.1134422,0.11369 L 8.6518309,292.366 A 0.39723743,0.39723743 0 0 1 8.090292,292.92774 L 7.0493584,291.8874 a 0.08039709,0.08039709 0 0 0 -0.1134422,0.1137 l 0.9154381,0.91512 a 0.39744327,0.39744327 0 0 1 -0.5623492,0.56179 l -0.8132389,-0.81344 a 0.08039712,0.08039712 0 0 0 -0.1134422,0.1137 l 0.6735631,0.67359 a 0.39741605,0.39741605 0 0 1 -0.562248,0.56179 L 6.3552338,293.89504 A 0.45969507,0.45969507 0 0 0 5.9325603,293.14954 0.52993547,0.52993547 0 0 0 5.2540341,292.50725 0.61422387,0.61422387 0 0 0 4.34285,291.85858 0.52993547,0.52993547 0 0 0 3.4381484,291.46214 l -0.153147,0.1538 a 1.2132645,1.2132645 0 0 0 -0.9445077,-0.64946 l 0.8246843,-3.079 a 3.0751668,3.0751668 0 0 0 1.4911574,-0.11387 4.4950181,4.4950181 0 0 0 -0.9274914,1.42522 z" fill="#000000" stroke="none"/>
</g><text x="0" y="27.7" fill="#000000" font-size="5px" font-weight="bold" font-family="'Helvetica Neue', Helvetica, Arial-Unicode, Arial, Sans-serif">Created by Phạm Thanh Lộc</text><text x="0" y="32.7" fill="#000000" font-size="5px" font-weight="bold" font-family="'Helvetica Neue', Helvetica, Arial-Unicode, Arial, Sans-serif">from the Noun Project</text></svg>