<svg xmlns="http://www.w3.org/2000/svg" version="1.1" viewBox="-5.0 -10.0 110.0 135.0">
 <path d="m9.4961 24.547h-2.9297v9.8984c0.10156-0.10156 0.10156-0.20312 0.10156-0.30469z"/>
 <path d="m78.184 48.484h16.16c-0.10156-0.20312-0.10156-0.40234-0.20312-0.70703l-2.625-9.5977-13.434 0.003906z"/>
 <path d="m9.3945 39.496-1.1094-0.70703c-0.91016-0.60547-1.5156-1.6172-1.7188-2.625v18.789h2.8281z"/>
 <path d="m64.141 50.707c-0.50391 1.4141-1.4141 2.4258-2.7266 2.9297l-0.60547 1.4141h7.4766l-3.0312-8.1836z"/>
 <path d="m9.7969 36.77 12.223 8.4844 22.93 6.5664 14.949-0.50391c0.20312-0.10156 0.30469-0.10156 0.50391-0.10156 0.70703-0.20312 1.1094-0.91016 1.2109-1.3125l4.5469-15.961c0.20312-0.60547-0.10156-1.5156-0.70703-1.918l-12.324-8.3828-22.824-6.6719-14.848 0.50391c-0.70703 0-1.4141 0.40234-1.6172 1.2109l-4.75 16.164c-0.19922 0.60547 0.10156 1.5156 0.70703 1.9219zm35.152 11.414 6.2617-21.719c0.10156-0.70703 0.80859-1.1094 1.5156-0.91016 0.70703 0.10156 1.1094 0.80859 0.91016 1.5156l-6.2617 21.719c-0.20312 0.50391-0.70703 0.91016-1.2109 0.91016h-0.30469c-0.70703-0.20312-1.1133-0.91016-0.91016-1.5156zm-23.332-6.668 6.1602-21.816c0.10156-0.70703 0.80859-1.1094 1.5156-0.91016 0.70703 0.10156 1.1094 0.80859 0.91016 1.5156l-6.1602 21.816c-0.20312 0.50391-0.70703 0.91016-1.2109 0.91016h-0.30469c-0.71094-0.20312-1.1133-0.91016-0.91016-1.5156z"/>
 <path d="m76.77 51.109c-0.60547 0-1.2109-0.50391-1.2109-1.2109l-0.10156-12.828c0-0.30469 0.20312-0.70703 0.40234-0.91016 0.20312-0.30469 0.60547-0.40234 0.91016-0.40234h13.84l-0.71094-2.7266h-18.383v23.332c0 0.60547-0.50391 1.2109-1.2109 1.2109h-65.66v8.5859h7.375c0.70703-4.3438 4.3438-7.6758 8.8906-7.6758s8.2812 3.332 8.8906 7.6758h2.5234c0.70703-4.3438 4.3438-7.6758 8.8906-7.6758s8.2812 3.332 8.8906 7.6758h20.102c0.20312 0 0.40234 0.10156 0.60547 0.20312 0.50391-4.4453 4.3438-7.8789 8.8906-7.8789s8.2812 3.332 8.8906 7.6758h6.7695v-7.7773c0-2.5234-0.20312-4.9492-0.60547-7.2734z"/>
 <path d="m21.012 60.91c-3.5352 0-6.3633 2.9297-6.3633 6.4648s2.8281 6.3633 6.3633 6.3633c3.5352 0 6.3633-2.8281 6.4648-6.3633 0-3.6367-2.9297-6.4648-6.4648-6.4648z"/>
 <path d="m79.898 60.91c-3.5352 0-6.3633 2.9297-6.3633 6.4648s2.8281 6.3633 6.3633 6.3633c3.5352 0 6.4648-2.8281 6.4648-6.3633 0-3.6367-2.9297-6.4648-6.4648-6.4648z"/>
 <path d="m41.211 60.91c-3.5352 0-6.3633 2.9297-6.3633 6.4648s2.8281 6.3633 6.3633 6.3633c3.5352 0 6.3633-2.8281 6.4648-6.3633 0-3.6367-2.9297-6.4648-6.4648-6.4648z"/>
<text x="0.0" y="117.5" font-size="5.0" font-weight="bold" font-family="Arbeit Regular, Helvetica, Arial-Unicode, Arial, Sans-serif" fill="#000000">Created by Marcus DeClarke</text><text x="0.0" y="122.5" font-size="5.0" font-weight="bold" font-family="Arbeit Regular, Helvetica, Arial-Unicode, Arial, Sans-serif" fill="#000000">from Noun Project</text></svg>